<svg xmlns="http://www.w3.org/2000/svg" viewBox="0 0 200 50">
  <g fill="#1DB954">
    <path d="M30,10 C18.95,10 10,18.95 10,30 C10,41.05 18.95,50 30,50 C41.05,50 50,41.05 50,30 C50,18.95 41.05,10 30,10 Z M30,45 C21.72,45 15,38.28 15,30 C15,21.72 21.72,15 30,15 C38.28,15 45,21.72 45,30 C45,38.28 38.28,45 30,45 Z"/>
    <path d="M30,20 C24.48,20 20,24.48 20,30 C20,35.52 24.48,40 30,40 C35.52,40 40,35.52 40,30 C40,24.48 35.52,20 30,20 Z M30,35 C27.24,35 25,32.76 25,30 C25,27.24 27.24,25 30,25 C32.76,25 35,27.24 35,30 C35,32.76 32.76,35 30,35 Z"/>
    <path d="M30,0 L35,8 L25,8 Z"/>
  </g>
  <text x="60" y="35" font-family="Arial, sans-serif" font-size="24" font-weight="bold" fill="#1DB954">ORGANIC</text>
</svg>